<svg width="124" height="42" viewBox="0 0 124 42" fill="none" xmlns="http://www.w3.org/2000/svg">
<path d="M13.814 25.1123C13.7261 23.8818 13.2134 22.7979 12.2759 21.8604C11.3384 20.8936 9.82959 19.8535 7.74951 18.7402C5.34717 17.5684 3.51611 16.2354 2.25635 14.7412C0.996582 13.2178 0.381348 11.3281 0.410645 9.07227C0.469238 6.8457 1.34814 4.98535 3.04736 3.49121C4.74658 1.99707 7.03174 1.25 9.90283 1.25C11.4556 1.25 12.8618 1.36719 14.1216 1.60156C15.3813 1.83594 16.6265 2.17285 17.8569 2.6123V7.22656C16.187 6.34766 14.7075 5.76172 13.4185 5.46875C12.1294 5.17578 11.0161 5.0293 10.0786 5.0293C9.14111 5.0293 8.24756 5.39551 7.39795 6.12793C6.54834 6.83105 6.12354 7.87109 6.12354 9.24805C6.12354 10.4785 6.63623 11.5771 7.66162 12.5439C8.71631 13.4814 10.3862 14.5654 12.6714 15.7959C14.9858 17.0264 16.7144 18.4033 17.8569 19.9268C19.0288 21.4209 19.6147 23.1787 19.6147 25.2002C19.6147 27.6904 18.7212 29.8291 16.9341 31.6162C15.1763 33.4033 12.5688 34.3848 9.11182 34.5605C7.82275 34.6191 6.46045 34.502 5.0249 34.209C3.58936 33.8867 2.41748 33.4326 1.50928 32.8467C0.92334 32.4951 0.54248 32.0703 0.366699 31.5723C0.190918 31.0742 0.190918 30.5322 0.366699 29.9463C0.630371 29.3604 1.11377 28.9795 1.81689 28.8037C2.52002 28.5986 3.32568 28.7744 4.23389 29.3311C4.84912 29.624 5.62549 29.9023 6.56299 30.166C7.50049 30.4004 8.30615 30.5029 8.97998 30.4736C10.6206 30.3271 11.8804 29.7705 12.7593 28.8037C13.6382 27.8369 13.9897 26.6064 13.814 25.1123ZM27.7886 34.209H22.3394V6.21582C22.3394 5.33691 22.2661 4.75098 22.1196 4.45801C21.9731 4.13574 21.7974 3.93066 21.5923 3.84277C21.1235 3.66699 20.7573 3.49121 20.4937 3.31543C20.23 3.13965 20.0981 2.80273 20.0981 2.30469C20.0981 1.30859 20.7134 0.810547 21.9438 0.810547H25.8989C27.1587 0.810547 27.7886 1.29395 27.7886 2.26074V13.5986C28.1108 13.2471 28.4917 12.9102 28.9312 12.5879C30.396 11.416 32.0366 10.8301 33.853 10.8301C35.9624 10.8301 37.6616 11.5479 38.9507 12.9834C40.269 14.4189 40.9282 16.8359 40.9282 20.2344V34.209H35.479V20.1465C35.479 18.0957 35.2153 16.7334 34.688 16.0596C34.1606 15.3564 33.5454 15.0049 32.8423 15.0049C31.6118 15.0049 30.3081 15.8545 28.9312 17.5537C28.4917 18.1104 28.1108 18.7842 27.7886 19.5752V34.209ZM50.6841 34.209H45.1909V16.5869C45.1909 15.6787 45.1177 15.0635 44.9712 14.7412C44.8247 14.4189 44.6636 14.2139 44.4878 14.126C43.9604 13.9795 43.5649 13.8037 43.3013 13.5986C43.0376 13.3936 42.9058 13.0859 42.9058 12.6758C42.9058 11.6797 43.5356 11.1816 44.7954 11.1816H48.7944C50.0542 11.1816 50.6841 11.709 50.6841 12.7637V34.209ZM50.8599 4.37012C50.8599 5.30762 50.5229 6.11328 49.8491 6.78711C49.2046 7.43164 48.4136 7.75391 47.4761 7.75391C46.5386 7.75391 45.7476 7.43164 45.103 6.78711C44.4585 6.11328 44.1362 5.30762 44.1362 4.37012C44.1362 3.43262 44.4585 2.62695 45.103 1.95312C45.7476 1.25 46.5386 0.898438 47.4761 0.898438C48.4136 0.898438 49.2046 1.25 49.8491 1.95312C50.5229 2.62695 50.8599 3.43262 50.8599 4.37012ZM54.9468 16.5869C54.9468 15.6787 54.8735 15.0781 54.7271 14.7852C54.5806 14.4629 54.4048 14.2432 54.1997 14.126C53.731 13.9795 53.3647 13.8037 53.1011 13.5986C52.8374 13.3936 52.7056 13.0713 52.7056 12.6318C52.7056 11.665 53.3208 11.1816 54.5513 11.1816H58.4624C59.5757 11.1816 60.1909 11.5479 60.3081 12.2803C61.5679 11.167 63.1938 10.6104 65.186 10.6104C68.2915 10.6104 70.6499 11.7236 72.2612 13.9502C73.8726 16.1475 74.6782 19.0625 74.6782 22.6953C74.6782 26.0645 73.8286 28.877 72.1294 31.1328C70.4302 33.3887 67.9839 34.5166 64.7905 34.5166C62.9741 34.5166 61.4946 34.0918 60.3521 33.2422V41.7236H54.9468V16.5869ZM69.1851 22.8271C69.1851 20.1318 68.7163 18.0664 67.7788 16.6309C66.8706 15.166 65.772 14.4336 64.4829 14.4336C63.3989 14.4336 62.4468 14.9756 61.6265 16.0596C60.8062 17.1143 60.396 18.5645 60.396 20.4102V24.585C60.396 26.8701 60.7915 28.4961 61.5825 29.4629C62.4028 30.4297 63.3843 30.9131 64.5269 30.9131C65.6401 30.9131 66.6948 30.2246 67.6909 28.8477C68.687 27.4707 69.1851 25.4639 69.1851 22.8271ZM100.298 18.4766V31.792C98.0425 33.3447 95.1714 34.2236 91.6851 34.4287C88.228 34.6338 85.3276 34.0332 82.9839 32.627C80.8159 31.3086 79.0435 29.4189 77.6665 26.958C76.3188 24.4971 75.6304 21.4209 75.6011 17.7295C75.6011 12.8369 76.7876 8.86719 79.1606 5.82031C81.5337 2.77344 85.064 1.25 89.7515 1.25C92.769 1.25 95.2886 2.05566 97.3101 3.66699C99.3608 5.27832 100.386 7.18262 100.386 9.37988H94.5415C94.4829 8.03223 93.9556 6.99219 92.9595 6.25977C91.9927 5.52734 90.8501 5.16113 89.5317 5.16113C87.5103 5.16113 85.6353 6.15723 83.9067 8.14941C82.2075 10.1123 81.3579 13.0713 81.3579 17.0264C81.3579 21.333 82.2661 24.6289 84.0825 26.9141C85.8989 29.1699 88.1255 30.3564 90.7622 30.4736C91.3188 30.4736 91.9634 30.4443 92.6958 30.3857C93.4575 30.3271 94.146 30.1953 94.7612 29.9902V23.4863C94.7612 21.9336 94.4829 20.9814 93.9263 20.6299C93.3989 20.249 92.3882 20.0439 90.894 20.0146C90.0151 20.0146 89.5757 19.502 89.5757 18.4766C89.5757 17.4219 89.9126 16.8945 90.5864 16.8945H98.6284C99.7417 16.8945 100.298 17.4219 100.298 18.4766ZM102.1 22.6074C102.1 19.0918 103.008 16.2207 104.825 13.9941C106.67 11.7383 109.336 10.6104 112.823 10.6104C116.338 10.6104 119.019 11.7383 120.865 13.9941C122.71 16.2207 123.633 19.0918 123.633 22.6074C123.633 26.0938 122.71 28.9502 120.865 31.1768C119.019 33.4033 116.338 34.5166 112.823 34.5166C109.336 34.5166 106.67 33.4033 104.825 31.1768C103.008 28.9502 102.1 26.0938 102.1 22.6074ZM107.857 22.6074C107.857 25.4785 108.37 27.5879 109.395 28.9355C110.42 30.2539 111.563 30.9131 112.823 30.9131C114.112 30.9131 115.269 30.2539 116.294 28.9355C117.349 27.5879 117.876 25.4785 117.876 22.6074C117.876 19.707 117.349 17.583 116.294 16.2354C115.269 14.8877 114.112 14.2139 112.823 14.2139C111.563 14.2139 110.42 14.8877 109.395 16.2354C108.37 17.583 107.857 19.707 107.857 22.6074Z" fill="#0041BF"/>
</svg>
